<svg id="Layer_1" data-name="Layer 1" xmlns="http://www.w3.org/2000/svg" viewBox="0 0 387.13 201.13"><defs><style>.cls-1{fill:#ee2f3d}.cls-2{fill:#333}</style></defs><path class="cls-1" d="M157.06 359v55.56h-18.6v-6.91c-3.78 5.47-9.24 8.58-17 8.58-12.48 0-19.71-7.57-19.71-21.49V359h18.6v31.74c0 7.35 2.9 10.36 8.68 10.36 6.13 0 9.47-3.57 9.47-10.92V359zM226.21 386.71a39.73 39.73 0 0 1-3 16c-3.88 8.34-11.35 13.36-21.59 13.36-7.24 0-12.81-2.46-16.7-7.69V437H166.3v-78h18.15v6.68c4-5.67 9.69-8.35 17.16-8.35 10.24 0 17.71 5 21.59 13.48a39.43 39.43 0 0 1 3 15.92m-19.83 0c0-3.9-.44-6.69-1.33-8.69-1.67-3.67-5-5.57-9.58-5.57-7 0-10.8 4.45-10.8 12.7v3c0 8.23 3.79 12.69 10.8 12.69 4.58 0 7.91-1.9 9.58-5.57.89-2 1.33-4.68 1.33-8.57M319.86 359h18.5v5c2.88-4.69 6-6.58 10.46-6.58 6.68 0 10.91 4.35 10.91 10.81 0 6.22-4.34 10.79-10.69 10.79a9.43 9.43 0 0 1-8.68-5c-1.57.67-1.89 1.56-1.89 5.46v35.07h-18.61zM418.59 382.59v32H400V408c-3.67 5.13-9.36 8.14-18.38 8.14-8.78 0-15.36-3.12-18.15-9.36a17.2 17.2 0 0 1-1.56-7.91 19 19 0 0 1 1.34-7.57c4-8.68 14.81-10.69 28.39-10.69H400v-.88c0-3.35-.21-4.57-.9-6q-1.67-3.68-7.68-3.68c-4.34 0-6.79 1.13-7.91 3.57a9.94 9.94 0 0 0-.66 3.33h-18.93a20.54 20.54 0 0 1 1.67-7.79c3.68-8.13 13.13-11.8 25.61-11.8 13.47 0 21.37 3.56 25.05 11.58a35 35 0 0 1 2.34 13.7M399 397.85c.8-1.57 1-3.13 1-6.13v-.78h-7.12c-5.36 0-9.71.56-10.93 3.44a5.45 5.45 0 0 0-.55 2.46 5.59 5.59 0 0 0 .55 2.68c1.12 2.44 4 3.33 7.36 3.33 5 0 8.24-1.77 9.68-5M486.14 335.94v78.6H468v-6.69c-4 5.58-9.56 8.26-17.14 8.26-10.24 0-17.71-4.9-21.6-13.36a44.06 44.06 0 0 1 0-32c3.79-8.46 11.36-13.48 21.6-13.48 7.24 0 12.69 2.45 16.7 7.68v-29.01zm-18.37 49.21c0-8.25-3.79-12.7-10.81-12.7-4.56 0-7.91 1.9-9.58 5.57-.89 2-1.32 4.79-1.32 8.69s.43 6.67 1.32 8.79c1.67 3.68 5 5.58 9.58 5.58 7 0 10.81-4.47 10.81-12.71zM277.83 372.73v14.33h12l-.46 1.87c-1.49 6.23-8.92 10.41-14.94 10.41-8.37 0-19.19-4-19.19-23.23 0-15.9 7-23.49 17.63-23.49 5.83 0 10.33 1.38 13 5.44a14.41 14.41 0 0 1 2.28 6.26h21.28a27.33 27.33 0 0 0-7.52-18.48l-.38-.38c-6.47-7-16.21-10.93-28.24-10.93-24.58 0-40.48 16.37-40.48 41.69 0 29.29 20.14 39.68 37.36 39.68 9.66 0 18.37-2.88 23.66-8.57l.25 7.21h16.66v-41.81z" transform="translate(-99.01 -334.53)"/><path class="cls-2" d="M323.78 474.9A30.22 30.22 0 1 0 354 505.12a30.24 30.24 0 0 0-30.22-30.22zm-22.3 16.79v.19l-.05-.11a.56.56 0 0 0 .05-.08zm17.92 39.09c-1.36-1.45.69-5.15.3-6.73-.24-1-1.64-1.95-2.34-2.82a17.73 17.73 0 0 1-2.21-2.93c-.64-1.32-.35-1.83.27-2.89a13.76 13.76 0 0 0 .72-2.23c.1-.24 1.13-1.28 1-1.52v-.1c-.75-.05-1.46.08-2.06-.4s-.62-1.54-1.08-2c-1.12-1-3-.43-4.25-1.33a11.35 11.35 0 0 1-3.16-2.72c-.68-1-1-3.82-2.31-4.07 0 1.32-.22 1.71.39 3.05.36.79 1.08 2.64-.64 2.15a16.4 16.4 0 0 0-.41-3.65c-.32-1.2-1.27-2.4-1.53-3.73a19.8 19.8 0 0 1-.12-3.7c0-1.26-.45-2.35-.51-3.52a26.52 26.52 0 0 1 2.79-3.78 7.37 7.37 0 0 1 2.57-2 29.58 29.58 0 0 1 3.28-1.21 23.82 23.82 0 0 1 3.72-.34c-.26-.79-1.15-1.54.4-1.39.91.09 1.13.95 2.2.52-.44-.42-1.86-1.36-.43-1.55v-1.5c.3-.16.62-.3.95-.44a26.08 26.08 0 0 1 4.87-.82 3.18 3.18 0 0 1 .64.19 3.73 3.73 0 0 1 .39-.25h.88a26 26 0 0 1 10.28 2.09 2.68 2.68 0 0 0 .54.62c.43.32 1.4.57.45.73-.29.05-.55-.12-.75.11s.13.58-.45.84-1.19-.23-1.48.38.24 1.35.06 1.92-1.06.54-1.69.5a5.07 5.07 0 0 1-3.41-2c-.25-.34-.81-1.26-.58-1.73s.59-.13.76-.39-.16-.68-.36-.8c-.05.48-.37.65-.78.43-.6-.32-.29-.94-.57-1.41-.44-.72-1.56-.46-2.25-.67a10.37 10.37 0 0 1-1-.38 3.63 3.63 0 0 1-.72.41 6.26 6.26 0 0 0-1.71.57c-1.49 1.12.23 1.14 1.08 1.35 1.12.28 1.66 1.31 2.52 1.66 1.21.49 1.7-.22 1.52 1.65a1.62 1.62 0 0 1-1.75-.72 3 3 0 0 1 .48 1.86c-1.12.41-1.69-.14-2.64-.52a18.59 18.59 0 0 1-2.44-.63 1.82 1.82 0 0 1 0-.57c.82 0 1.71-.06 1.37-1.18-1.52-.12-1.87.55-2.78 1.45 2.33.78.24 1.53-1 1.47-1.09-.06-2.77-.26-3.36 1.11s1.33 1.58 2.37 1.92c.62.2.9.09 1.34.57s.2 1.13.93 1.52c.3-.57-.28-1.21-.14-1.55.31-.79.79-.33 1.53-.63-.37-.86-1.51-1.12-1.27-2s1.6-.95 2.43-.92c1.27 0 1.28.73 2.17 1 1.38.46 1.42-.52 2.38 1a17.62 17.62 0 0 0 3.36 3.58c2.42 2.26-1.93 2.18-2.41.49.19-.08.5-.33.64-.37a7.88 7.88 0 0 0-3.93-.11 1 1 0 0 0 0 .6 2.61 2.61 0 0 1 1.74.43c.16.12-.1.63.23.85s1-.07 1.26-.1c.23 1.48-3.13.93-3.9 1.41 0 .29-.18.56-.17.86-1.88-.28-1.81 1.58-2.43 2.67-.47.84-1.45 1.39-2 2.2-.27.36-.75.68-.71 1.2.06.88 1.1.43 1.09 1.23 0 1.62-2.12-.06-2.42-.88-1.89-.4-4.38-.64-5.08 1.52a1.65 1.65 0 0 0 1.13 2.29c1 .09.61-.59 1.28-.86a4.59 4.59 0 0 1 1.48 0c.33.92.18 1.37.67 2a3.53 3.53 0 0 1 .89 1.57c.23.73.43 1.44 1.29 1.73s1.83-.33 1.91.91c1.56.06 2.83 0 4 .94.91.7 1.37 1.51 2.44 1.86 1.72.55 2.24.4 2.69 2.15.21.81-.42 1.07.75 1.32.68.14 1.57-.31 2.31-.26a2.3 2.3 0 0 1 2.42 2.16c0 .77-.33 1-.62 1.53s-.45 1.67-.87 2.34c-.85 1.35-2.39.74-3.31 2-.32.44-.19 1.11-.68 1.57s-1.43.36-1.75.62c-.62.5-.32.92-1 1.52-.38.36-1.42.18-1.88.39-.76.36-1.2 1.12-1.8 1.53q-.98-.02-2.02-.24zm26.08-15a25.34 25.34 0 0 1 .49-2.81 9.5 9.5 0 0 0 .34-2.86c0-.48 0-1.21-.29-1.54a5 5 0 0 0-1.24-.58c-.57 0-1.15.89-1.72 1a1.72 1.72 0 0 1-1.73-.73c-.55-.6-1.19-1-1.77-1.63a3.71 3.71 0 0 1-.85-2.63 8.06 8.06 0 0 1 .37-2.54c.12-.39.24-.79.33-1.19.2-.84.24-.38.64-.81a8.75 8.75 0 0 0 .91-1.81 7 7 0 0 1 1.08-1.43c-1.06-.42-1.1-2.26-.7-3.3.5-.09 2.12.2 1.27-1-.28-.37-1.11-.26-.66-1 .23-.37.78-.4 1.15-.38a.83.83 0 0 1 .65-.75l-.12-.07a12 12 0 0 1-1.22-1.15c-.35-.4-.62-1.52-.06-1.74a26.07 26.07 0 0 1 4.13 5.49 3.71 3.71 0 0 0 .15.4c.2.48.49 1.05.7 1.52a2.51 2.51 0 0 0 .4.6 25.6 25.6 0 0 1 1 2.86 2.51 2.51 0 0 1 0 .27c-.71-.29-1.09-1.5-1.51-2.11v.73a.72.72 0 0 1-.42-.11c-.2-.39-.45-.79-.68-1.17a.77.77 0 0 1 0 .4c-.74 0-.57-.87-.75-1.35s-.79-.92-1.35-.43c-.37.32-.42 1-.69 1.41s-.39.26-.51.4-.37.17-.26.55a4.38 4.38 0 0 1 1.93-.2c.51.05 1.39-.09 1.75.22.21.19.17.54.27.75a3.32 3.32 0 0 0 .44.64c.28.35.67 1.43 1.14 1.33a3.1 3.1 0 0 0 0-.43c.91.31 1.24 1.94 1.34 2.8a52.67 52.67 0 0 1 .33 5.27 25.73 25.73 0 0 1-3.92 12.19 9.9 9.9 0 0 1-.36-3.11zM147.82 520h-22.68l-3.86 14.79H99l24.28-74.37h27.42l24.3 74.41h-23.3zm-18.71-15.41h14.74l-7.16-27h-.41zM202.47 524.83h-.42v10h-21.13v-78.24h21.13v30.72h.42c2.78-7.06 9-11.24 17.26-11.24 14.64 0 22.79 10.67 22.79 29.8s-8.1 29.79-22.53 29.79c-8.5 0-14.84-4.07-17.52-10.83zm-.47-18.91c.05 8.3 3.66 13.4 9.49 13.4s9.43-5.21 9.43-13.45-3.71-13.46-9.43-13.46-9.49 5.26-9.49 13.51zM249.22 476.9h20.62v11.34h.41c2.17-8.2 6.65-12.17 13.56-12.17a14.37 14.37 0 0 1 5 .83v17.78a16.25 16.25 0 0 0-6.24-1.18c-8 0-12.21 4.17-12.21 12.26v29.07h-21.14zM358.65 518c0-11.08 8.51-17.11 24-18l12.78-.77v-2.94c0-4-3-6.14-7.16-6.14-4.49 0-7.37 2.48-7.74 5.47h-18.89c.52-12.27 11-20.1 27.73-20.1 16 0 26.65 8 26.65 19.74v39.63H395.4V527h-.4c-3 5.67-10.05 8.66-16.8 8.66-10.63 0-19.55-7.22-19.55-17.66zm36.75-3.66v-3.81l-9.33.67c-4.23.31-6.6 2.26-6.6 5.2 0 3.2 2.63 5.11 6.55 5.11 4.9-.02 9.38-2.81 9.38-7.19zM422.73 505.71c0-18.6 8.55-29.64 23-29.64 8.46 0 14.8 4.75 17.07 11.24h.41v-30.72h21.13v78.24h-21.15v-10h-.41c-2 6.09-8.71 10.83-17.37 10.83-14.28 0-22.68-11.08-22.68-29.95zm21.65.16c0 8.45 3.5 13.45 9.43 13.45s9.48-5 9.48-13.4-3.55-13.51-9.48-13.51-9.43 5.11-9.43 13.46z" transform="translate(-99.01 -334.53)"/></svg>