<svg version="1.1" id="Capa_1" xmlns="http://www.w3.org/2000/svg" x="0" y="0" viewBox="0 0 512 512" style="enable-background:new 0 0 512 512" xml:space="preserve"><style>.st0{fill:#fff}</style><path class="st0" d="M232.6 248.2c-8.6 8.6-8.6 22.6 0 31.1 8.6 8.6 22.6 8.6 31.1 0 8.6-8.6 8.6-22.6 0-31.1-8.5-8.6-22.5-8.6-31.1 0zm20.6 10.6c2.7 2.7 2.7 7.2 0 9.9s-7.2 2.7-9.9 0-2.7-7.2 0-9.9 7.1-2.7 9.9 0z"/><path class="st0" d="M134 512c7.7 0 14-2.3 18.6-6.9 1.5-1.5-2.7 3.8 64.2-83.6v.8c0 6.6 7.4 10.5 12.8 6.8l17.3-11.8c.7-.5 1.6-.5 2.3 0l17.3 11.8c5.4 3.7 12.8-.2 12.8-6.8v-19.8l8.5 17.8c2.8 5.9 11.2 6.3 14.5.6l10.6-18.1c.4-.7 1.3-1.1 2.1-1l20.7 3.2c6.5 1 11.5-5.7 8.7-11.6l-36.2-76c2.6-3.7 6.1-6.7 10.2-8.7l8.1-4c5.5-2.7 7.9-9.1 5.8-14.6 20.4-19.1 42-37.3 64.1-54.2 114.6-87.8 106.9-81.8 108.5-83.3 9.7-9.7 9-27-1.7-49.1.7-5.3-.2-12.5-4.6-22.1-1.7-3.8-6.1-5.4-9.9-3.7-3.8 1.7-5.4 6.2-3.7 9.9 4.6 10.3 3.5 14.7 2.8 15.5l-.1.1c-9.1 6.6-30.4 1.6-55.5-12.9l3.3-3.3c3.9-3.9 3.9-10.3.1-14.2-10.8-11.1-19.3-23-24-33.3-4.6-10.2-3.5-14.7-2.8-15.4.1-.1.3-.2.4-.3.3-.1.7-.2 1-.3 6-1.1 25.9 6 49.1 29.2 2.4 2.4 4.8 5 7.1 7.5 2.7 3.1 7.5 3.4 10.6.7s3.4-7.5.7-10.6c-2.4-2.8-5-5.5-7.7-8.2-20-20-45.1-35.5-61.5-33.4C386.4-2.2 369-2.9 359.3 6.8c-.8.8-1.5 1.6-2.2 2.6-87.3 113.9-86.1 112.7-97 126-4 4.9-.4 12.2 5.8 12.2 2.2 0 4.3-.9 5.8-2.8 11.1-13.7 11-13.7 82.4-107 1.1 4.4 2.7 8.7 4.4 12.8 12.1 28.3 38.1 57.5 62 77-93.1 71.3-108.1 82.1-136 106.4-8.6-10.5-21.1-16.7-34.6-17.3-6.6-8.3-12.8-17-18.4-26 5.5-5.9 11-11.9 16.3-17.9 2.7-3.1 2.5-7.8-.6-10.6-3.1-2.7-7.8-2.5-10.6.6-4.9 5.5-9.9 11-14.9 16.4-5.6-2.1-12 .3-14.6 5.8l-4 8.1c-3 6.2-8.2 10.9-14.6 13.3l-4.9 1.9c-6.3 2.4-9.2 9.5-6.6 15.5-19.7 18.2-40.4 35.7-61.7 52-113.9 87.4-107 82-108.5 83.5-9.1 9.1-9 25.5.3 46.1C29.3 454.3 95.3 512 134 512zm123.8-107c-5.8-4-13.4-4-19.2 0l-6.7 4.6v-42.8c0-4.1-3.4-7.5-7.5-7.5s-7.5 3.4-7.5 7.5v30.1c-79.2 103.5-74.4 97.2-74.8 97.6-5.5 5.5-24.2 2-49-14.5L217 318.3v13.5c0 4.1 3.4 7.5 7.5 7.5s7.5-3.4 7.5-7.5v-23.9c10.1 3.7 21.7 4 32.7 0v101.7l-6.9-4.6zm59.7-17.8c-7-1.1-13.8 2.2-17.4 8.3l-4.1 7-16.5-34.7v-68.9c.8-.7 1.6-1.5 2.4-2.3l43.7 91.9-8.1-1.3zm-16.1-84.4-9.9-20.8c.4-1 .8-2 1.1-3 7.1 5.3 14.5 10.4 22.1 15.1-4.4 2.1-8.3 3.9-13.3 8.7zm191.9-185c5.1 13.3 4.1 21.3 1.2 24.2-3.6 3.6-13.7 3.7-28.9-3.2l27.7-21zm-71.7-38.1-2.4 2.4c-11.4-7.6-22.9-16.6-34.2-26.7l11-14.5c4.7 12.6 14.4 26.6 25.6 38.8zm-27.5-61.1L374 45.2c-.8-.8-1.6-1.5-2.3-2.3-4.8-12-5.5-21.7-1.7-25.4 2.9-3 10.8-4 24.1 1.1zm6.7 69c18.2 13.3 42.8 28.1 65.1 32.2L451.1 131c-18.3-11.2-36.2-27.2-50.3-43.4zm32.2 49.5c11.9 8.4 27 17.1 41 20.6L387.5 224c-23 17.6-45.3 36.5-66.4 56.3-9-5.6-17.7-11.8-26-18.4-.2-4.9-1.2-9.9-2.9-14.5 28.9-25.3 42.5-34.9 140.8-110.3zM270.8 286.4c-12.5 12.5-32.8 12.5-45.3 0s-12.5-32.8 0-45.3 32.8-12.5 45.3 0 12.5 32.8 0 45.3zm-77-65.8c10-3.8 18.1-11.1 22.8-20.7l1.3-2.7c4.7 7.6 9.7 14.9 15.1 22.1-11.9 4-21.2 12.5-26.5 22.8-5-6.9-9.5-13.8-13.8-21l1.1-.5zM17.4 369.9c.4-.4-6.4 4.9 107-82 20.8-16 41.1-33 60.5-50.8 5.1 7.9 10.6 15.6 16.4 23.1-1 13 3.4 26.4 13.2 36.4L80.8 471.2c-7.2-5.7-14.3-12-21.2-18.9-38-38-50.4-74.2-42.2-82.4z"/></svg>