<svg width="16" height="15" viewBox="0 0 16 15" fill="none" xmlns="http://www.w3.org/2000/svg"><path d="M7.6 0C3.41-.005 0 3.284 0 7.346c-.006 4.063 3.388 7.369 7.572 7.374 4.19.005 7.584-3.29 7.584-7.357C15.156 3.3 11.774 0 7.6 0zm1.9.741c0-.038 0-.086.062-.065.033.011.083.027.06.076-.016.038-.016.092-.077.103C9.489.833 9.5.785 9.5.74zM9.3.65c.005.016-.028.076-.05.076-.09 0-.134-.054-.162-.146.09.005.173-.016.212.07zM6.023 14.092c-.022.07-.089.022-.139.011C3.11 13.481.892 11.123.501 8.385a7.374 7.374 0 0 1 .012-2.158c.027-.173.133-.325.122-.514-.005-.076.056-.184.179-.206.105-.021.178-.01.2.114.017.086.05.173.078.26.006.026.011.07.022.07.195.038.117.276.268.34.017.006.033.028.028.044-.006.384.25.736.117 1.136-.062.19.033.384.072.573.028.125.162.19.25.27.096.087.14.174.151.304.023.34.307.552.457.827.006.011.05.022.073.011.055-.016.033-.065.028-.097-.023-.108-.112-.173-.184-.254-.1-.114-.145-.238-.14-.444.19.298.363.541.563.768.022.022.022.06.028.092.022.087-.033.184.061.254.2.152.39.38.63.4.29.022.48.223.735.282.095.022.156.114.212.2.117.19.284.309.524.303.128 0 .212.07.256.184.04.114-.028.184-.111.249-.095.076-.195.151-.095.287.006.005.006.016.006.016-.156.254.094.346.211.487.034.038.09.075.095.119.05.243.234.34.44.427.195.087.262.352.184.617-.044.14.034.303-.078.444-.033.037.04.086.084.113.095.065.067.135.044.19zm7.957-9.72c-.05.032-.067-.017-.089-.05-.083-.14-.162-.286-.25-.422-.04-.06-.045-.156-.184-.119-.079.022-.112-.124-.179-.189-.039-.038-.044-.135-.145-.097-.066.027-.144.038-.128.14.006.033-.005.07-.044.076-.184.049-.156.168-.123.303.067.27-.011.503-.267.65-.162.091-.19.194-.129.345.04.092.05.184.006.282-.039.103 0 .178.134.157.106-.017.195-.13.323-.006.134.125.162.254.123.422-.112-.021-.095-.13-.145-.19-.045-.053-.078-.124-.173-.086-.095.038-.05.103-.04.168.018.07.029.14.051.211.022.076.045.14-.084.13-.066-.006-.078.06-.105.103-.067.113-.129.227-.196.34a.374.374 0 0 1-.066.087c-.156-.092-.218.119-.351.097-.045-.005-.078.011-.09.06-.01.054.023.076.067.103.073.038.162.054.195.151.095.298.028.373-.29.32-.3-.055-.328-.033-.284.259.017.119-.033.233-.055.346-.017.098-.011.179.117.173.161-.01.139.125.15.206.017.092-.016.178-.15.184a.18.18 0 0 0-.179.227c.073.222-.06.308-.211.379a.73.73 0 0 0-.402.454c-.05.14-.072.254.023.384.061.081.072.157-.056.217-.117.054-.106.313.006.395.094.064.2.113.184.265-.012.097.334.243.44.2.1-.043.184-.109.317-.049.106.043.173-.092.262-.146.078-.049.145-.119.229-.01.055.07.122.02.184 0 .06-.017.105-.006.139.042.039.054-.023.082-.045.114-.033.043-.078.076-.1.12-.039.075-.072.183.033.216.218.064.123.2.09.313a.792.792 0 0 1-.15.255.686.686 0 0 0-.151.584c.027.146-.045.205-.145.281-1.627 1.25-3.477 1.71-5.561 1.46.145-.205.317-.319.546-.335.095-.005.167-.016.212-.102.033-.07.083-.12.172-.07.028.015.084.02.09-.006.05-.157.261-.168.312-.352.033-.13.189-.232.362-.232.206-.006.462-.222.457-.428-.006-.14.055-.216.161-.287.05-.032.1-.07.145-.108.145-.13.112-.314-.067-.384-.161-.06-.312-.151-.501-.097-.067.021-.117-.027-.162-.065a.4.4 0 0 0-.295-.098c-.134.011-.206-.032-.223-.178-.022-.19-.206-.32-.412-.298a.326.326 0 0 1-.301-.108c-.078-.081-.223-.108-.279-.178-.167-.195-.356-.103-.546-.108-.145 0-.228-.125-.34-.19-.111-.07-.2-.119-.24.065-.033.14-.272.244-.4.173a.437.437 0 0 0-.229-.048c-.178.005-.29-.082-.262-.26.028-.2-.1-.292-.25-.308-.157-.022-.151-.087-.14-.195.006-.054 0-.108.011-.157.022-.12-.056-.173-.145-.2-.106-.033-.122.07-.161.135-.04.06.01.168-.112.173a.383.383 0 0 1-.312-.108c-.195-.2-.184-.666 0-.866.117-.124.212-.113.307.011.067.092.111.114.195.01.106-.14.373-.113.462.033.056.092.123.173.179.26.05.076.128.097.189.06.061-.044.056-.125-.011-.19-.028-.027-.067-.054-.078-.086-.084-.25-.195-.4.173-.547a.447.447 0 0 0 .3-.351c.05-.228.09-.466.396-.52.078-.01.056-.092.061-.146.023-.157.257-.362.407-.346.1.005.045.07.028.114-.017.048-.017.092.033.113.05.022.084-.016.095-.043.061-.14.234-.076.323-.168.05-.048.14-.08.106-.167-.028-.076-.106-.022-.161-.038-.145-.038-.29-.07-.318-.25-.006-.042-.006-.097-.072-.097-.05 0-.084.033-.117.07a.45.45 0 0 1-.402.19.869.869 0 0 0 .324-.324c.05-.092.278-.076.345.016.05.07.106.103.184.075.111-.037.039-.097.017-.151-.017-.049.022-.092.055-.07.145.097.251-.184.38-.038.055.06-.029.119-.068.168-.055.07-.111.14-.072.227.039.08.123.027.178.027.073-.006.112.043.145.086.067.081.15.07.24.07.083.006.083-.064.106-.118-.156-.05-.056-.314-.279-.314-.072 0-.095-.038-.084-.103.017-.081.017-.168.05-.249.05-.119.045-.21-.094-.265-.056-.021-.078-.065-.084-.124 0-.049-.016-.081-.078-.092-.278-.054-.306-.087-.295-.341 0-.027-.022-.06-.045-.081a.976.976 0 0 1-.217-.373c-.017-.05-.028-.109-.1-.098-.084.011-.062.07-.062.12.012.091-.005.167-.1.21-.1.043-.184-.043-.284-.032-.033 0-.033-.054-.022-.098.067-.276-.112-.497-.407-.508h-.04c-.2-.043-.272.038-.255.232.005.12.027.244-.084.347-.056.054-.028.119.033.162.14.097.168.314.028.4-.15.103-.167.238-.128.374.034.113.006.221-.089.232a.189.189 0 0 1-.195-.205c.006-.044-.006-.092 0-.136.022-.178-.05-.243-.228-.194-.067.016-.106-.011-.14-.05-.078-.086-.184-.118-.29-.161-.172-.076-.245-.26-.35-.406-.05-.07 0-.173.06-.27.146-.228.324-.412.524-.59.062-.054.073-.163.112-.26.078.065.061.14.022.206-.044.07-.033.14.028.167.061.027.162.076.206-.027.028-.06.056-.043.084-.016.056.043.122.043.161-.005.04-.06 0-.125-.039-.179-.06-.07-.211-.086-.122-.238.044-.086.067-.173.156-.238.1-.076.056-.438-.056-.476-.1-.038-.212-.076-.228.097-.006.103-.128.157-.128.27 0 .028-.056.033-.079-.005-.01-.021-.01-.048-.016-.075-.023-.065.044-.184-.056-.2-.111-.017-.045.13-.117.183a.74.74 0 0 1-.128-.394c-.006-.065.022-.152-.056-.19-.039-.016-.106-.01-.122.038-.034.087-.14.157-.067.265.01.022.028.043.044.065.028.038.05.081.011.125-.05.054-.083-.011-.117-.028-.156-.075-.189-.059-.189.12 0 .14-.162.265-.29.238-.061-.011-.089-.044-.1-.103-.011-.049.017-.07.045-.108.083-.109.3-.184.094-.39-.072-.07-.094-.243-.005-.368.039-.054.067-.124.005-.146-.05-.022-.133.016-.156.092-.028.097-.056.2-.083.325-.09-.054-.162-.103-.24-.152-.273-.178-.574-.081-.696.227 0 .006-.006.011-.006.022-.006.087-.111.19-.006.249.1.054.145-.081.218-.146.061.113.133.205.267.086.04-.032.084-.027.106.006.033.048-.011.086-.05.108-.028.016-.061.016-.095.027-.056.01-.14 0-.156.065-.022.081.09.065.117.103.061.092.128.097.24.092.1-.006.05.135.1.205-.09-.016-.145-.08-.24-.07-.083.01-.133.076-.211.097-.067-.07.106-.178-.05-.227a.664.664 0 0 0-.446 0c-.14.054-.307.07-.362.254-.023.065-.15.038-.257.027a7.2 7.2 0 0 1 1.187-1.536c.056-.06.078-.027.134.01.256.158.345.206.518-.005.045-.054.106-.027.156-.07.123-.097.134-.2.011-.297-.055-.044-.1-.011-.111.032-.05.308-.162.114-.257.033-.144 0-.172.173-.328.167.1-.08.195-.162.295-.243.48-.4 1.009-.736 1.616-1.012-.056.12-.173.19-.095.325.073.119.128.113.212.032.022-.027.028-.081.084-.048.033.021.027.054.022.086-.011.038-.017.081-.034.114-.033.054-.122.097-.05.162.056.049.156.043.206.005.112-.092.212-.086.351-.048.084.021.246.021.223-.157-.005-.06.011-.12.062-.13.161-.032.206-.152.262-.276.044-.108.133-.178.256-.227a.661.661 0 0 0 .329-.27c.039-.06.328-.141.384-.103.033.021.04.054.011.08a.572.572 0 0 1-.167.104c-.061.027-.362-.022-.067.162.045.027-.005.135-.061.119-.19-.065-.29.108-.44.135-.05.01-.09.027-.067.092.017.043.028.087.089.081.09-.005.173-.005.262-.005.033 0 .067-.006.072.043 0 .043-.01.076-.067.076-.089 0-.172.005-.261.01-.05 0-.123.05-.084.066.111.054.134.232.3.194.079-.016.162-.01.24-.038.234-.08.396.011.563.174.162.162.234.4.179.551-.09.265-.073.292.195.228.066-.017.156.07.133.162-.022.097-.089.065-.15.021-.061-.037-.117-.021-.134.055-.022.102-.028.21.067.265.056.032.162.016.195-.07.017-.044.011-.125.084-.098.066.027 0 .092 0 .135 0 .087-.017.162-.117.206-.117.048-.223.362-.134.438.083.07.1.146.106.227.005.125.083.098.172.081-.027.12-.111.222-.05.341.034.07.028.157.14.162.05 0 .06.044.078.082.005.01 0 .032.01.037.157.092.307.184.469.27.01.006.067-.026.067-.037-.023-.151.106-.249.161-.362.1-.2.078-.406.134-.606.028-.103.084-.092.156-.092.234 0 .44-.13.513-.341.027-.087.094-.07.15-.092.134-.054.34.043.407-.168 0-.01.033-.01.056-.016.261-.032.356-.216.222-.444-.072-.119-.016-.26-.078-.378-.016-.027.006-.103.067-.103.15 0 .15-.07.095-.173-.017-.038-.006-.049.028-.033.072.033.095.006.106-.06.01-.08-.05-.08-.1-.097-.145-.037-.235-.13-.33-.243.068-.054.19.01.196-.108.005-.103-.1-.087-.145-.135-.05-.05-.167-.044-.145-.136.022-.097.006-.232.15-.27.04-.011.1-.043.095-.06-.022-.162.084-.07.128-.054a7.26 7.26 0 0 1 2.313 1.46 7.044 7.044 0 0 1 1.387 1.813c.017.027.028.06.045.087.044.038.044.07.005.097z" fill="#000"/></svg>