<svg id="Capa_1" height="512" viewBox="0 0 512 512" width="512" xmlns="http://www.w3.org/2000/svg"><path d="M391 123V90h30c8.284 0 15-6.716 15-15V15c0-8.284-6.716-15-15-15H91c-8.284 0-15 6.716-15 15v60c0 8.284 6.716 15 15 15h30v33c0 67.604 49.952 123.758 114.884 133.5C170.813 266.263 121 322.552 121 390v32H91c-8.284 0-15 6.716-15 15v60c0 8.284 6.716 15 15 15h330c8.284 0 15-6.716 15-15v-60c0-8.284-6.716-15-15-15h-30v-32c0-67.394-49.759-123.729-114.884-133.5C341.048 246.758 391 190.604 391 123zM106 30h300v30H106zm255 60c-1.252 23.881 4.151 46.344-9.215 76h-191.57c-13.425-29.788-7.944-51.775-9.215-76zm45 392H106v-30h300zm-255-60c.277-28.476-.734-35.29 1.217-48H226c11.187 0 21.746-4.057 30.002-11.476C263.976 369.656 274.495 374 286 374h73.783A105.398 105.398 0 0 1 361 390v32zm199.372-78H286c-8.285 0-15.036-6.74-15.05-15.025-.014-8.276-6.727-14.975-14.999-14.975h-.025c-8.284.014-14.989 6.74-14.976 15.025.014 8.272-6.677 14.975-14.95 14.975h-64.372c38.408-78.477 150.262-78.629 188.744 0zM180.605 196h150.789c-41.312 42.655-109.448 42.684-150.789 0z"/></svg>