<svg version="1.1" id="Icons" xmlns="http://www.w3.org/2000/svg" x="0" y="0" viewBox="0 0 512 512" style="enable-background:new 0 0 512 512" xml:space="preserve"><style>.st0{fill:#fff}</style><path class="st0" d="M380.5 491.2H27.7c-3.8 0-6.9-3.1-6.9-6.9V27.7c0-3.8 3.1-6.9 6.9-6.9h352.9c3.8 0 6.9 3.1 6.9 6.9v112.9c0 3.8-3.1 6.9-6.9 6.9-3.8 0-6.9-3.1-6.9-6.9v-106h-339v442.8h339V269.8c0-3.8 3.1-6.9 6.9-6.9 3.8 0 6.9 3.1 6.9 6.9v214.5c0 3.8-3.1 6.9-7 6.9z"/><path class="st0" d="M325.2 138.4H83c-3.8 0-6.9-3.1-6.9-6.9 0-3.8 3.1-6.9 6.9-6.9h242.2c3.8 0 6.9 3.1 6.9 6.9 0 3.8-3.1 6.9-6.9 6.9zM283.7 221.4H83c-3.8 0-6.9-3.1-6.9-6.9s3.1-6.9 6.9-6.9h200.6c3.8 0 6.9 3.1 6.9 6.9s-3 6.9-6.8 6.9zM216.8 304.4H83c-3.8 0-6.9-3.1-6.9-6.9s3.1-6.9 6.9-6.9h133.8c3.8 0 6.9 3.1 6.9 6.9s-3 6.9-6.9 6.9zM214.5 387.5H83c-3.8 0-6.9-3.1-6.9-6.9 0-3.8 3.1-6.9 6.9-6.9h131.5c3.8 0 6.9 3.1 6.9 6.9 0 3.8-3.1 6.9-6.9 6.9zM341.4 331.3c-1.4 0-2.8-.5-4-1.3l-61.1-43.8c-3.1-2.2-3.8-6.5-1.6-9.6L410.6 86.8c14.3-20 42.1-24.6 62.1-10.3s24.6 42.1 10.3 62.1L347.1 328.4c-1.3 1.9-3.4 2.9-5.7 2.9zM290 279l49.9 35.7 131.9-184.1c9.9-13.8 6.7-32.9-7.1-42.8-13.8-9.9-32.9-6.7-42.8 7.1L290 279z"/><path class="st0" d="M257.2 384.5c-3.8 0-6.9-3.1-6.9-6.9 0-.5.1-1.1.2-1.6l23.1-96.9c.9-3.7 4.6-6 8.3-5.1.9.2 1.7.6 2.4 1.1l61.1 43.8c3.1 2.2 3.8 6.5 1.6 9.7-.5.7-1.2 1.3-1.9 1.8l-84.3 53.1c-1.1.6-2.3 1-3.6 1zm27.4-92.2-16.8 70.4L329 324l-44.4-31.7zM445.5 186c-1.4 0-2.8-.5-4-1.3l-61.1-43.8c-3.1-2.2-3.9-6.5-1.8-9.6 2.2-3.1 6.5-3.9 9.6-1.8.1 0 .1.1.2.1l61.1 43.8c3.1 2.2 3.8 6.5 1.6 9.7-1.3 1.8-3.4 2.9-5.6 2.9z"/></svg>