<svg width="14" height="12" viewBox="0 0 14 12" fill="none" xmlns="http://www.w3.org/2000/svg"><path d="M13.213.79H1.303a.817.817 0 0 0-.52.179.566.566 0 0 0-.215.433v9.914c0 .08.019.16.056.235a.62.62 0 0 0 .16.199.76.76 0 0 0 .238.132c.09.031.185.047.282.047h6.41V7.612h-1.74v-1.67h1.74V4.687a1.712 1.712 0 0 1 .122-.87c.116-.28.305-.535.552-.747.248-.213.548-.377.88-.483.332-.105.687-.149 1.042-.128.52-.003 1.04.02 1.559.067V4.03h-1.064c-.843 0-1.004.334-1.004.819v1.075h2.007l-.26 1.67H9.8v4.334h3.412a.866.866 0 0 0 .282-.047.76.76 0 0 0 .239-.132.62.62 0 0 0 .16-.2.525.525 0 0 0 .055-.234V1.402c0-.08-.019-.16-.056-.235a.62.62 0 0 0-.16-.198.76.76 0 0 0-.238-.133.866.866 0 0 0-.282-.047z" fill="#fff"/></svg>