<svg width="14" height="12" viewBox="0 0 14 12" fill="none" xmlns="http://www.w3.org/2000/svg"><path d="M7.171 4.978c-.328 0-.649.081-.921.233a1.471 1.471 0 0 0-.612.62c-.125.252-.158.53-.094.798s.222.514.454.707c.232.193.528.325.85.378.322.054.655.026.958-.078.304-.105.563-.282.745-.509.182-.227.28-.494.28-.767 0-.182-.043-.361-.127-.53a1.395 1.395 0 0 0-.36-.447 1.714 1.714 0 0 0-.538-.3 1.953 1.953 0 0 0-.635-.105zm6.644-1.364a3.104 3.104 0 0 0-.28-1.26 2.233 2.233 0 0 0-.61-.784 2.783 2.783 0 0 0-.943-.508A5.155 5.155 0 0 0 10.47.83c-.863-.04-1.117-.04-3.299-.04-2.18 0-2.435 0-3.298.04a5.156 5.156 0 0 0-1.512.233 2.782 2.782 0 0 0-.943.508c-.268.223-.475.49-.61.785a3.105 3.105 0 0 0-.28 1.259C.48 4.332.48 4.544.48 6.36c0 1.815 0 2.027.046 2.746.008.431.103.859.281 1.264a2.2 2.2 0 0 0 .61.78c.266.224.588.397.943.507.483.151.995.23 1.512.233.863.04 1.117.04 3.298.04 2.182 0 2.436 0 3.299-.04a5.154 5.154 0 0 0 1.512-.233c.355-.11.677-.283.944-.507.267-.221.475-.487.608-.78.183-.405.278-.833.281-1.264.047-.719.047-.93.047-2.746 0-1.816 0-2.028-.047-2.746zM12.116 8.07c-.021.343-.11.682-.261 1.002-.13.267-.323.51-.568.714a2.672 2.672 0 0 1-.857.473 4.522 4.522 0 0 1-1.211.194H5.124a4.522 4.522 0 0 1-1.211-.194 2.433 2.433 0 0 1-.877-.48c-.242-.2-.43-.44-.548-.707a2.61 2.61 0 0 1-.228-1.008V4.655a2.61 2.61 0 0 1 .228-1.008c.123-.276.32-.526.575-.73.241-.2.531-.356.85-.456a4.52 4.52 0 0 1 1.211-.195H9.219c.413.01.822.076 1.21.195.333.102.632.266.877.479.243.2.43.44.549.707.143.323.222.664.234 1.008V6.36c0 1.147.047 1.264.027 1.704v.006zm-1.07-4.145a1.324 1.324 0 0 0-.369-.478 1.66 1.66 0 0 0-.575-.307 3.171 3.171 0 0 0-.923-.122H5.164a3.157 3.157 0 0 0-.923.144 1.67 1.67 0 0 0-.57.295 1.34 1.34 0 0 0-.374.463 2.015 2.015 0 0 0-.14.769V8.03c.007.262.065.522.174.768.08.18.205.344.368.48.163.135.36.24.575.306.286.087.586.136.89.144H9.18c.315-.002.628-.051.923-.144a1.66 1.66 0 0 0 .575-.307c.163-.136.289-.299.368-.479.112-.245.171-.506.174-.768V4.689c0-.263-.058-.524-.174-.77v.006zM7.17 8.487a3 3 0 0 1-.977-.162 2.632 2.632 0 0 1-.828-.461 2.141 2.141 0 0 1-.552-.69 1.817 1.817 0 0 1-.192-.814c0-.422.15-.833.431-1.183.282-.35.681-.623 1.149-.784.467-.16.981-.202 1.477-.12.496.083.952.286 1.309.584s.6.678.698 1.09a1.8 1.8 0 0 1-.148 1.23c-.195.39-.524.721-.945.954a2.936 2.936 0 0 1-1.422.356zM9.848 4.65a.65.65 0 0 1-.385-.164.458.458 0 0 1-.154-.335c0-.124.055-.243.154-.335a.65.65 0 0 1 .385-.163.65.65 0 0 1 .384.163c.1.092.155.211.155.335a.457.457 0 0 1-.155.335.65.65 0 0 1-.384.164z" fill="#fff"/></svg>