<svg width="14" height="12" viewBox="0 0 14 12" fill="none" xmlns="http://www.w3.org/2000/svg"><path d="M13.01.79H1.678a1.144 1.144 0 0 0-.372.057c-.118.04-.226.097-.318.171a.822.822 0 0 0-.214.26.695.695 0 0 0-.08.308v9.547c.003.106.03.21.08.308a.82.82 0 0 0 .214.26c.092.074.2.132.318.171.118.04.245.06.372.058H13.01c.127.001.254-.018.372-.058.118-.039.226-.097.317-.171a.82.82 0 0 0 .215-.26.693.693 0 0 0 .079-.308V1.586a.693.693 0 0 0-.079-.308.822.822 0 0 0-.215-.26 1.008 1.008 0 0 0-.317-.171A1.144 1.144 0 0 0 13.01.79zm-8.282 9.324H2.722V5.1h2.006v5.013zM3.725 4.399c-.277 0-.542-.092-.738-.255a.803.803 0 0 1-.305-.614c0-.23.11-.451.305-.614.196-.163.461-.255.738-.255.147-.014.296-.002.437.036.14.037.27.099.381.18.11.083.199.183.259.296.06.112.092.234.092.357a.753.753 0 0 1-.092.357.903.903 0 0 1-.259.295c-.11.082-.24.144-.381.181-.141.038-.29.05-.437.036zm8.241 5.715H9.96v-2.69c0-.674-.287-1.115-1.016-1.115a1.26 1.26 0 0 0-.63.17.96.96 0 0 0-.4.438.942.942 0 0 0-.067.406v2.785H5.839V5.095h2.007v.708c.182-.264.447-.48.766-.628.32-.147.682-.22 1.046-.208 1.338 0 2.308.719 2.308 2.262v2.885z" fill="#fff"/></svg>