<svg xmlns="http://www.w3.org/2000/svg" width="500" height="500" viewBox="0 0 500 500"><defs><filter id="filter" x="58.406" y="49.813" width="386.188" height="400.031" filterUnits="userSpaceOnUse"><feFlood result="flood" flood-color="#fff"/><feComposite result="composite" operator="in" in2="SourceGraphic"/><feBlend result="blend" in2="SourceGraphic"/></filter></defs><path d="m440.842 217.808-76.506-50a7.9 7.9 0 0 0-1.9-.747v-17.248a8.272 8.272 0 0 0-8.218-8.334H323.7l-63.736-40.4a8.11 8.11 0 0 0-8.715 0l-63.735 40.4h-38.728a8.272 8.272 0 0 0-8.218 8.334v17.24a7.847 7.847 0 0 0-1.9.753l-76.506 50a8.381 8.381 0 0 0-3.765 7.007v216.681a8.275 8.275 0 0 0 8.219 8.335h369.773a8.274 8.274 0 0 0 8.219-8.335V224.816a8.384 8.384 0 0 0-3.766-7.008zm-185.231-99.834 37.089 23.505h-74.174zM157 158.145h189v187.512c0 .022.014.044.014.069l-27.8 17.117-66.89-37a8.132 8.132 0 0 0-8.008.082L182.279 361.3l-25.286-15.571c0-.023.014-.042.014-.067zm-82.169 71.213 65.737-42.958v149.216l-65.737-40.482v-65.776zm0 85.269 91.139 56.117-91.139 52.82V314.627zM91.39 433.163l156.1-90.46 163.525 90.46H91.39zm336.783-9.5-93.283-51.6 93.283-57.442v109.045zm0-128.532-65.739 40.479V186.4l65.739 42.961v65.774zm-238.3-53.651h98.607a8.272 8.272 0 0 0 8.219-8.333v-50a8.273 8.273 0 0 0-8.219-8.335h-98.608a8.273 8.273 0 0 0-8.218 8.335v50a8.272 8.272 0 0 0 8.218 8.336zm8.216-50h82.173v33.334h-82.174v-33.333zm-16.434 66.67h131.474v16.668H181.654v-16.667zm0 33.335h131.474v16.67H181.654v-16.67zM403.52 149.813a8.137 8.137 0 0 0 5.812-2.442l29.049-29.463a8.415 8.415 0 0 0 0-11.782 8.131 8.131 0 0 0-11.619 0l-29.05 29.461a8.416 8.416 0 0 0 0 11.784 8.127 8.127 0 0 0 5.808 2.442zm-309.847-2.442a8.134 8.134 0 0 0 11.621 0 8.416 8.416 0 0 0 0-11.784l-29.051-29.461a8.133 8.133 0 0 0-11.619 0 8.411 8.411 0 0 0 0 11.782zm241.061-39.822a8.015 8.015 0 0 0 3.048.592 8.218 8.218 0 0 0 7.632-5.241l16.434-41.669a8.375 8.375 0 0 0-4.581-10.831 8.189 8.189 0 0 0-10.681 4.646l-16.433 41.669a8.375 8.375 0 0 0 4.581 10.834zM165.806 102.9a8.213 8.213 0 0 0 7.632 5.241 8 8 0 0 0 3.048-.594 8.378 8.378 0 0 0 4.582-10.833l-16.435-41.667a8.186 8.186 0 0 0-10.68-4.646 8.376 8.376 0 0 0-4.581 10.832z" style="fill:#333946;fill-rule:evenodd;filter:url(#filter)"/></svg>