<svg width="14" height="10" viewBox="0 0 14 10" fill="none" xmlns="http://www.w3.org/2000/svg"><path d="M13.775 1.906a6.6 6.6 0 0 1-1.579.356c.574-.285 1.005-.735 1.211-1.264-.54.267-1.13.456-1.746.557A2.94 2.94 0 0 0 10.1.85a3.23 3.23 0 0 0-1.75.238c-.535.238-.961.618-1.21 1.08a1.934 1.934 0 0 0-.164 1.47 9.044 9.044 0 0 1-3.132-.695 7.696 7.696 0 0 1-2.522-1.695 2.026 2.026 0 0 0-.368 1.153c0 .375.11.745.323 1.077.212.33.52.613.895.822A3.138 3.138 0 0 1 .93 4.017v.028c.003.526.224 1.035.627 1.441.402.406.96.684 1.58.787a3.12 3.12 0 0 1-.735.094 3.92 3.92 0 0 1-.516-.039c.177.453.519.849.978 1.132.46.284 1.013.441 1.585.45-.965.633-2.157.978-3.386.98a6.36 6.36 0 0 1-.669-.033c1.255.674 2.716 1.032 4.209 1.03a9.139 9.139 0 0 0 3.006-.476 8.022 8.022 0 0 0 2.55-1.408 6.514 6.514 0 0 0 1.699-2.12 5.523 5.523 0 0 0 .58-2.501v-.295a5.19 5.19 0 0 0 1.338-1.181z" fill="#fff"/></svg>