<svg width="86" height="46" viewBox="0 0 86 46" fill="none" xmlns="http://www.w3.org/2000/svg"><g clip-path="url(#clip0)" fill="#fff"><path d="M12.894 5.597v12.707H8.762v-1.58c-.84 1.25-2.053 1.962-3.777 1.962-2.772 0-4.378-1.732-4.378-4.915V5.597h4.132v7.259c0 1.68.644 2.37 1.928 2.37 1.362 0 2.104-.817 2.104-2.498V5.597h4.123zM28.258 11.934a9.324 9.324 0 0 1-.667 3.66c-.861 1.907-2.521 3.055-4.796 3.055-1.608 0-2.846-.563-3.71-1.759v6.546H14.95V5.596h4.032v1.529c.889-1.297 2.153-1.91 3.812-1.91 2.275 0 3.934 1.143 4.796 3.083a9.252 9.252 0 0 1 .667 3.64l.002-.004zm-4.408.005c0-.892-.097-1.53-.295-1.988-.371-.839-1.11-1.274-2.128-1.274-1.555 0-2.4 1.018-2.4 2.905v.686c0 1.882.843 2.902 2.4 2.902 1.017 0 1.757-.434 2.128-1.273.198-.458.295-1.07.295-1.96M49.062 5.597h4.11V6.74c.64-1.072 1.333-1.505 2.323-1.505 1.484 0 2.424.995 2.424 2.473 0 1.422-.964 2.467-2.375 2.467a2.047 2.047 0 0 1-1.124-.286 2.13 2.13 0 0 1-.804-.857c-.349.153-.42.357-.42 1.249v8.02h-4.134V5.597zM70.996 10.992v7.319h-4.13v-1.508c-.815 1.174-2.079 1.862-4.083 1.862-1.95 0-3.412-.713-4.032-2.14a4.035 4.035 0 0 1-.346-1.81 4.46 4.46 0 0 1 .297-1.731c.889-1.985 3.29-2.445 6.307-2.445h1.857v-.201c0-.766-.046-1.045-.2-1.372-.247-.561-.816-.842-1.706-.842-.964 0-1.508.258-1.757.816-.09.244-.14.501-.147.762h-4.205c.01-.613.136-1.218.371-1.782.818-1.859 2.917-2.698 5.69-2.698 2.992 0 4.747.814 5.564 2.648.375.998.552 2.064.52 3.133v-.011zm-4.352 3.49c.178-.359.222-.716.222-1.402v-.178h-1.581c-1.191 0-2.157.128-2.428.786a1.276 1.276 0 0 0-.123.563c-.009.212.033.422.123.613.248.558.888.762 1.635.762 1.11 0 1.83-.405 2.15-1.144M86.001.322V18.3h-4.03v-1.53c-.888 1.276-2.123 1.889-3.807 1.889-2.275 0-3.934-1.12-4.798-3.056a10.354 10.354 0 0 1 0-7.318c.842-1.935 2.523-3.083 4.798-3.083 1.608 0 2.82.56 3.71 1.756V.322h4.127zm-4.08 11.255c0-1.887-.842-2.905-2.402-2.905-1.013 0-1.757.435-2.128 1.274-.198.458-.293 1.096-.293 1.988 0 .892.095 1.525.293 2.01.371.842 1.11 1.276 2.128 1.276 1.555 0 2.402-1.022 2.402-2.907v-.736zM39.726 8.737v3.277h2.666l-.102.428c-.331 1.425-1.982 2.38-3.32 2.38-1.859 0-4.262-.914-4.262-5.312 0-3.637 1.555-5.373 3.916-5.373 1.295 0 2.295.316 2.888 1.244.275.43.449.92.507 1.432h4.727a6.349 6.349 0 0 0-1.67-4.226L44.99 2.5C43.554.899 41.39 0 38.718 0c-5.46 0-8.993 3.744-8.993 9.535 0 6.699 4.474 9.075 8.3 9.075 2.145 0 4.08-.659 5.256-1.96l.055 1.649h3.701V8.737h-7.31zM49.933 32.103a6.577 6.577 0 0 0-3.73 1.165 6.873 6.873 0 0 0-2.473 3.102 7.1 7.1 0 0 0-.381 3.993 6.976 6.976 0 0 0 1.837 3.54 6.655 6.655 0 0 0 3.437 1.89 6.534 6.534 0 0 0 3.879-.392 6.76 6.76 0 0 0 3.013-2.546 7.058 7.058 0 0 0 1.131-3.84 7.021 7.021 0 0 0-1.968-4.886 6.622 6.622 0 0 0-4.745-2.026zm-4.954 3.84v.044l-.011-.025a.131.131 0 0 0 .01-.019zm3.98 8.94c-.301-.33.154-1.177.067-1.539-.053-.228-.364-.446-.52-.645a4.043 4.043 0 0 1-.49-.67c-.142-.302-.078-.418.06-.66.067-.166.12-.336.16-.51.022-.055.25-.293.222-.348v-.023c-.167-.011-.325.018-.458-.091-.133-.11-.138-.353-.24-.458-.249-.229-.666-.098-.944-.304a2.544 2.544 0 0 1-.702-.622c-.151-.229-.222-.874-.513-.931 0 .302-.049.391.087.697.08.181.24.604-.143.492 0-.28-.03-.56-.09-.835-.072-.274-.283-.548-.34-.853a4.666 4.666 0 0 1-.027-.846c0-.288-.1-.537-.114-.805.182-.306.39-.596.62-.864.155-.195.35-.351.571-.458.238-.107.48-.2.729-.277a5.15 5.15 0 0 1 .826-.077c-.058-.181-.255-.352.089-.318.202.02.251.217.489.119-.098-.096-.413-.311-.096-.355v-.343c.067-.037.138-.069.211-.1.354-.098.717-.16 1.082-.188.049.01.097.024.142.043a.827.827 0 0 1 .087-.057h.195a5.635 5.635 0 0 1 2.284.478.606.606 0 0 0 .12.142c.096.073.311.13.1.167-.064.011-.122-.028-.167.025-.044.053.03.133-.1.192-.128.06-.264-.052-.328.087-.065.14.053.309.013.44-.04.13-.236.123-.375.114a1.106 1.106 0 0 1-.758-.458c-.055-.078-.18-.288-.129-.395.051-.108.131-.03.17-.09.037-.06-.037-.155-.08-.183-.012.11-.083.15-.174.099-.133-.073-.065-.215-.127-.323-.098-.164-.346-.105-.5-.153a2.255 2.255 0 0 1-.222-.087.8.8 0 0 1-.16.094 1.36 1.36 0 0 0-.38.13c-.33.256.051.261.24.309.25.064.37.3.56.38.269.112.378-.05.338.377a.35.35 0 0 1-.22-.018.363.363 0 0 1-.169-.147c.08.126.117.276.107.426-.25.094-.376-.032-.587-.12a4.024 4.024 0 0 1-.542-.143.431.431 0 0 1 0-.13c.182 0 .38-.014.305-.27-.338-.028-.416.125-.618.331.517.178.053.35-.222.336-.242-.013-.616-.06-.747.254-.13.313.296.362.527.44.138.045.2.02.297.13.098.11.045.258.207.347.067-.13-.062-.276-.031-.354.069-.18.175-.076.34-.144-.082-.197-.335-.256-.282-.458.053-.2.355-.217.54-.21.282 0 .284.167.482.229.306.105.315-.12.528.228.21.308.462.583.747.82.537.516-.429.498-.536.111.043-.018.111-.075.143-.085a1.702 1.702 0 0 0-.873-.025.236.236 0 0 0 0 .138.567.567 0 0 1 .386.098c.036.027-.022.144.051.194.074.05.222-.016.28-.023.051.339-.695.213-.866.323 0 .066-.04.128-.038.197-.418-.064-.402.361-.54.61-.104.192-.322.318-.444.503-.06.083-.167.156-.158.275.013.201.245.098.242.281 0 .37-.47-.014-.537-.201-.42-.091-.973-.146-1.129.348a.387.387 0 0 0 .106.452c.043.034.092.059.145.071.222.02.136-.135.285-.196a.991.991 0 0 1 .328 0c.074.21.04.313.15.457.094.1.162.224.197.36.05.166.095.328.286.395.191.066.407-.076.425.208.346.014.628 0 .888.215.203.16.305.345.542.425.382.126.498.092.598.492.047.185-.093.245.166.302.152.032.35-.071.514-.06a.502.502 0 0 1 .367.133c.101.093.162.223.17.361 0 .177-.073.23-.138.35-.064.122-.1.382-.193.536-.188.308-.53.169-.735.457-.071.1-.042.254-.151.359-.109.105-.318.082-.389.142-.138.114-.07.21-.222.347-.084.083-.315.042-.418.09-.169.082-.266.256-.4.35a2.33 2.33 0 0 1-.448-.055zm5.794-3.43c.025-.216.061-.43.11-.643.056-.212.082-.433.075-.654 0-.11 0-.276-.065-.352a1.096 1.096 0 0 0-.275-.133c-.127 0-.256.204-.382.23a.372.372 0 0 1-.217-.026.384.384 0 0 1-.168-.142c-.122-.137-.264-.228-.393-.373a.865.865 0 0 1-.189-.601 1.896 1.896 0 0 1 .083-.581c.026-.09.053-.18.073-.272.044-.192.053-.087.142-.185.083-.13.15-.269.202-.414.066-.12.147-.23.24-.327-.235-.096-.244-.517-.155-.755.11-.02.47.046.282-.229-.062-.085-.247-.06-.147-.229.051-.084.173-.091.256-.087a.193.193 0 0 1 .044-.11.183.183 0 0 1 .1-.061l-.027-.016a2.702 2.702 0 0 1-.27-.263c-.078-.091-.138-.348-.014-.398.358.375.667.797.917 1.256.01.03.021.061.034.091.044.11.109.24.155.348.023.05.053.096.09.137.086.213.16.432.221.654a.577.577 0 0 1 0 .062c-.157-.067-.242-.343-.335-.483v.167a.156.156 0 0 1-.093-.025c-.045-.09-.1-.18-.151-.268a.18.18 0 0 1 0 .092c-.165 0-.127-.2-.167-.309-.04-.11-.176-.21-.3-.098-.082.073-.093.228-.153.322s-.087.06-.114.092c-.026.032-.082.039-.057.126a.947.947 0 0 1 .428-.046c.114.011.31-.02.39.05.046.044.037.124.06.172.026.052.059.101.097.146.062.08.149.327.253.304a.733.733 0 0 0 0-.098c.202.07.276.444.298.64.044.4.068.803.073 1.206a6.006 6.006 0 0 1-.87 2.788 2.327 2.327 0 0 1-.08-.712v.007zM10.841 42.418H5.803l-.857 3.383h-4.95L5.39 28.792h6.091L16.88 45.81h-5.176l-.862-3.392zm-4.156-3.524h3.274l-1.59-6.175h-.091l-1.593 6.175zM22.983 43.523h-.093v2.287h-4.694V27.916h4.694v7.026h.093c.618-1.615 2-2.57 3.835-2.57 3.252 0 5.062 2.44 5.062 6.815S30.08 46 26.875 46c-1.888 0-3.296-.93-3.892-2.477zm-.104-4.325c.011 1.898.813 3.065 2.108 3.065 1.295 0 2.095-1.192 2.095-3.076 0-1.885-.824-3.079-2.095-3.079-1.27 0-2.108 1.203-2.108 3.09zM33.369 32.561h4.58v2.594h.092c.482-1.876 1.477-2.784 3.012-2.784a3.11 3.11 0 0 1 1.11.19v4.067a3.52 3.52 0 0 0-1.385-.27c-1.777 0-2.713.953-2.713 2.804v6.648H33.37V32.561zM57.68 41.961c0-2.534 1.89-3.913 5.331-4.117l2.84-.176v-.672c0-.915-.667-1.404-1.591-1.404-.998 0-1.638.567-1.72 1.25h-4.196c.115-2.806 2.443-4.596 6.16-4.596 3.554 0 5.92 1.83 5.92 4.514v9.064h-4.58V44.02h-.09c-.666 1.296-2.232 1.98-3.731 1.98-2.362 0-4.343-1.651-4.343-4.039zm8.164-.837v-.871l-2.073.153c-.94.07-1.466.517-1.466 1.19 0 .731.584 1.168 1.455 1.168 1.088-.005 2.084-.643 2.084-1.645v.005zM71.914 39.15c0-4.254 1.9-6.779 5.11-6.779 1.879 0 3.287 1.087 3.791 2.57h.091v-7.025H85.6V45.81h-4.698v-2.287h-.091C80.367 44.916 78.876 46 76.952 46c-3.172 0-5.038-2.534-5.038-6.85zm4.81.037c0 1.932.777 3.076 2.094 3.076 1.318 0 2.106-1.144 2.106-3.065s-.788-3.09-2.106-3.09c-1.317 0-2.095 1.169-2.095 3.079z"/></g><defs><clipPath id="clip0"><path fill="#fff" d="M0 0h86v46H0z"/></clipPath></defs></svg>