<svg xmlns="http://www.w3.org/2000/svg" width="500" height="500" viewBox="0 0 500 500"><defs><filter id="filter" x="40.781" y="69.344" width="421.438" height="361.281" filterUnits="userSpaceOnUse"><feFlood result="flood" flood-color="#fff"/><feComposite result="composite" operator="in" in2="SourceGraphic"/><feBlend result="blend" in2="SourceGraphic"/></filter></defs><path id="Forma_1" data-name="Forma 1" d="M99.64 189.421c0 41.138 33.35 74.611 74.339 74.611s74.341-33.473 74.341-74.611-33.349-74.616-74.341-74.616-74.339 33.474-74.339 74.616zm74.339 53.466a53.4 53.4 0 0 1-45.5-81.143c11.96 12.2 28.442 17.047 45.062 20.592 20.885 4.454 43.159 6.667 47.72 31.356.014.065.034.113.047.175a53.282 53.282 0 0 1-47.329 29.02zm52.451-62.54c-22.312-18.394-61.768-11.819-83.651-34.178a52.791 52.791 0 0 1 31.2-10.219 53.377 53.377 0 0 1 52.451 44.397zM333.8 69.356a43.411 43.411 0 0 0-43.277 43.444v4.558L255.63 167.3l34.893-4.052v65.005a43.41 43.41 0 0 0 43.277 43.44h85.132a43.41 43.41 0 0 0 43.279-43.439V112.79a43.411 43.411 0 0 0-43.279-43.441H333.8v.006zm107.339 43.434v115.456a22.283 22.283 0 0 1-22.212 22.295H333.8a22.278 22.278 0 0 1-22.212-22.295v-88.737l-11.775 1.367 11.775-16.853V112.79a22.279 22.279 0 0 1 22.212-22.3h85.132a22.291 22.291 0 0 1 22.207 22.3zM51.321 430.638h389.592a10.573 10.573 0 0 0 0-21.145H292.258a31.714 31.714 0 0 0 3.573-14.516l-13.106-89.915c-.521-19.266-18.667-34.8-40.889-34.8h-46.945L174.8 291.075l-.275-.768-.59 1.671-.188.191-22.515-21.908h-45.107c-22.226 0-40.372 15.535-40.893 34.8L52.24 393.428l-.113 1.549a31.7 31.7 0 0 0 3.573 14.516h-4.379a10.573 10.573 0 0 0 0 21.145zM180.637 370.8l-6.11 4-6.11-4 6.11-17.278zM73.218 395.609l12.954-88.145.113-1.548c0-7.86 9.08-14.509 19.84-14.509H142.7l23.389 22.768-23.067 65.254 31.508 20.614 31.511-20.614-23.371-66.1 21.143-21.915h38.019c10.754 0 19.843 6.65 19.843 14.517l13.071 89.693c-.48 7.586-9.361 13.87-19.816 13.87H93.026c-10.454-.001-19.332-6.294-19.808-13.885zM348.34 145.3h-4.44a1.418 1.418 0 0 0-1.413 1.412v10.558a1.41 1.41 0 0 1-1.4 1.409H330.3a1.416 1.416 0 0 1-1.406-1.409v-10.557a1.412 1.412 0 0 0-1.405-1.412h-4.451a1.412 1.412 0 0 0-1.4 1.412v32.275a1.409 1.409 0 0 0 1.4 1.408h4.451a1.409 1.409 0 0 0 1.405-1.408v-12.845a1.414 1.414 0 0 1 1.406-1.406h10.781a1.408 1.408 0 0 1 1.4 1.406v12.845a1.416 1.416 0 0 0 1.419 1.412h4.443a1.412 1.412 0 0 0 1.413-1.408v-32.279a1.415 1.415 0 0 0-1.416-1.413zm29.2 13.505a10.587 10.587 0 0 0-4.471-3.842 14.721 14.721 0 0 0-6.077-1.218 12.408 12.408 0 0 0-9.244 3.6q-3.56 3.6-3.566 10.342 0 6.195 2.935 9.424a13.139 13.139 0 0 0 2.153 1.8 14.043 14.043 0 0 0 7.969 2.353q6.255 0 9.725-3.782a10.023 10.023 0 0 0 2.18-3.322 1.026 1.026 0 0 0-1.076-1.363h-4.1a2.776 2.776 0 0 0-2.009.954 5.01 5.01 0 0 1-.782.826 5.693 5.693 0 0 1-3.751 1.192 6.861 6.861 0 0 1-3.731-.975 5.644 5.644 0 0 1-2.558-4.081 1.216 1.216 0 0 1 1.262-1.394h16.02a1.406 1.406 0 0 0 1.405-1.412 27.434 27.434 0 0 0-.226-3.739 12.888 12.888 0 0 0-2.057-5.362zm-6.145 6.04h-8.832a1.061 1.061 0 0 1-1.1-1.373 6.469 6.469 0 0 1 1.5-2.644 5.383 5.383 0 0 1 4.046-1.478 5.919 5.919 0 0 1 4 1.4 5.109 5.109 0 0 1 1.592 2.7 1.168 1.168 0 0 1-1.201 1.396zm17.337-19.545h-3.95a1.412 1.412 0 0 0-1.4 1.412v32.275a1.409 1.409 0 0 0 1.4 1.408h3.95a1.411 1.411 0 0 0 1.413-1.408v-32.274a1.414 1.414 0 0 0-1.413-1.413zm13.5 0h-3.958a1.411 1.411 0 0 0-1.4 1.412v32.275a1.408 1.408 0 0 0 1.4 1.408h3.958a1.41 1.41 0 0 0 1.405-1.408v-32.274a1.413 1.413 0 0 0-1.401-1.413zm6.4 22.155a15.057 15.057 0 0 0 3.278 9.762q3.27 4.059 9.937 4.052t9.937-4.052a16.14 16.14 0 0 0 .007-19.489q-3.282-4.115-9.938-4.116t-9.937 4.116a15.134 15.134 0 0 0-3.282 9.728zm8.627-6.007a6.006 6.006 0 0 1 9.121 0 12.237 12.237 0 0 1 0 12.018 5.971 5.971 0 0 1-9.121 0 12.051 12.051 0 0 1 .002-12.017z" style="fill-rule:evenodd;filter:url(#filter)"/></svg>